<mxfile host="app.diagrams.net" modified="2021-07-01T21:29:32.827Z" agent="5.0 (Windows NT 10.0; Win64; x64) AppleWebKit/537.36 (KHTML, like Gecko) Chrome/91.0.4472.114 Safari/537.36" etag="L1hAU6RRVOBcQi5fZR9G" version="14.8.3" type="github">
  <diagram id="kgpKYQtTHZ0yAKxKKP6v" name="Page-1">
    <mxGraphModel dx="1117" dy="669" grid="1" gridSize="10" guides="1" tooltips="1" connect="1" arrows="1" fold="1" page="1" pageScale="1" pageWidth="850" pageHeight="1100" math="0" shadow="0">
      <root>
        <mxCell id="0" />
        <mxCell id="1" parent="0" />
        <mxCell id="jphkN0uenkxvXPKbCDXh-25" value="&lt;font style=&quot;font-size: 18px&quot;&gt;Sign up&lt;/font&gt;" style="html=1;fillColor=#FFFFFF;" vertex="1" parent="1">
          <mxGeometry x="270" y="325" width="310" height="50" as="geometry" />
        </mxCell>
        <mxCell id="jphkN0uenkxvXPKbCDXh-27" value="&lt;span style=&quot;font-size: 18px&quot;&gt;Sign in&amp;nbsp;&lt;/span&gt;" style="html=1;fillColor=#FFFFFF;" vertex="1" parent="1">
          <mxGeometry x="270" y="415" width="310" height="50" as="geometry" />
        </mxCell>
        <mxCell id="jphkN0uenkxvXPKbCDXh-28" value="&lt;font style=&quot;font-size: 18px&quot;&gt;Validate user&lt;/font&gt;" style="html=1;fillColor=#FFFFFF;" vertex="1" parent="1">
          <mxGeometry x="270" y="505" width="310" height="50" as="geometry" />
        </mxCell>
        <mxCell id="jphkN0uenkxvXPKbCDXh-29" value="&lt;font style=&quot;font-size: 18px&quot;&gt;Rent bike&lt;/font&gt;" style="html=1;fillColor=#FFFFFF;" vertex="1" parent="1">
          <mxGeometry x="270" y="595" width="310" height="50" as="geometry" />
        </mxCell>
        <mxCell id="jphkN0uenkxvXPKbCDXh-30" value="&lt;font style=&quot;font-size: 18px&quot;&gt;Track bike&lt;/font&gt;&lt;span style=&quot;color: rgba(0 , 0 , 0 , 0) ; font-family: monospace ; font-size: 0px&quot;&gt;%3CmxGraphModel%3E%3Croot%3E%3CmxCell%20id%3D%220%22%2F%3E%3CmxCell%20id%3D%221%22%20parent%3D%220%22%2F%3E%3CmxCell%20id%3D%222%22%20value%3D%22%26lt%3Bfont%20style%3D%26quot%3Bfont-size%3A%2018px%26quot%3B%26gt%3BValidate%20User%26lt%3B%2Ffont%26gt%3B%22%20style%3D%22html%3D1%3BfillColor%3D%23FFFFFF%3B%22%20vertex%3D%221%22%20parent%3D%221%22%3E%3CmxGeometry%20x%3D%22270%22%20y%3D%22250%22%20width%3D%22310%22%20height%3D%2250%22%20as%3D%22geometry%22%2F%3E%3C%2FmxCell%3E%3C%2Froot%3E%3C%2FmxGraphModel%3E&lt;/span&gt;" style="html=1;fillColor=#FFFFFF;" vertex="1" parent="1">
          <mxGeometry x="270" y="685" width="310" height="50" as="geometry" />
        </mxCell>
        <mxCell id="jphkN0uenkxvXPKbCDXh-31" value="&lt;font style=&quot;font-size: 18px&quot;&gt;Return to charging station&lt;/font&gt;" style="html=1;fillColor=#FFFFFF;" vertex="1" parent="1">
          <mxGeometry x="270" y="765" width="310" height="50" as="geometry" />
        </mxCell>
        <mxCell id="jphkN0uenkxvXPKbCDXh-32" value="&lt;font style=&quot;font-size: 24px&quot;&gt;Sequence Diagram&lt;/font&gt;" style="text;html=1;align=center;verticalAlign=middle;resizable=0;points=[];autosize=1;strokeColor=none;" vertex="1" parent="1">
          <mxGeometry x="315" y="285" width="220" height="20" as="geometry" />
        </mxCell>
        <mxCell id="jphkN0uenkxvXPKbCDXh-33" value="" style="endArrow=classic;html=1;entryX=0.5;entryY=0;entryDx=0;entryDy=0;" edge="1" parent="1" target="jphkN0uenkxvXPKbCDXh-27">
          <mxGeometry width="50" height="50" relative="1" as="geometry">
            <mxPoint x="425" y="375" as="sourcePoint" />
            <mxPoint x="475" y="325" as="targetPoint" />
          </mxGeometry>
        </mxCell>
        <mxCell id="jphkN0uenkxvXPKbCDXh-34" value="" style="endArrow=classic;html=1;entryX=0.5;entryY=0;entryDx=0;entryDy=0;" edge="1" parent="1" target="jphkN0uenkxvXPKbCDXh-28">
          <mxGeometry width="50" height="50" relative="1" as="geometry">
            <mxPoint x="425" y="465" as="sourcePoint" />
            <mxPoint x="475" y="415" as="targetPoint" />
          </mxGeometry>
        </mxCell>
        <mxCell id="jphkN0uenkxvXPKbCDXh-35" value="" style="endArrow=classic;html=1;entryX=0.5;entryY=0;entryDx=0;entryDy=0;" edge="1" parent="1" target="jphkN0uenkxvXPKbCDXh-29">
          <mxGeometry width="50" height="50" relative="1" as="geometry">
            <mxPoint x="425" y="555" as="sourcePoint" />
            <mxPoint x="475" y="505" as="targetPoint" />
          </mxGeometry>
        </mxCell>
        <mxCell id="jphkN0uenkxvXPKbCDXh-36" value="" style="endArrow=classic;html=1;entryX=0.5;entryY=0;entryDx=0;entryDy=0;" edge="1" parent="1" target="jphkN0uenkxvXPKbCDXh-30">
          <mxGeometry width="50" height="50" relative="1" as="geometry">
            <mxPoint x="425" y="645" as="sourcePoint" />
            <mxPoint x="475" y="595" as="targetPoint" />
          </mxGeometry>
        </mxCell>
        <mxCell id="jphkN0uenkxvXPKbCDXh-37" value="" style="endArrow=classic;html=1;entryX=0.5;entryY=0;entryDx=0;entryDy=0;" edge="1" parent="1" target="jphkN0uenkxvXPKbCDXh-31">
          <mxGeometry width="50" height="50" relative="1" as="geometry">
            <mxPoint x="425" y="735" as="sourcePoint" />
            <mxPoint x="475" y="685" as="targetPoint" />
          </mxGeometry>
        </mxCell>
        <mxCell id="jphkN0uenkxvXPKbCDXh-38" value="&lt;ul style=&quot;box-sizing: border-box ; margin-bottom: 16px ; margin-top: 0px ; padding-left: 2em ; color: rgb(36 , 41 , 46) ; font-family: , &amp;#34;blinkmacsystemfont&amp;#34; , &amp;#34;segoe ui&amp;#34; , &amp;#34;helvetica&amp;#34; , &amp;#34;arial&amp;#34; , sans-serif , &amp;#34;apple color emoji&amp;#34; , &amp;#34;segoe ui emoji&amp;#34; ; font-size: 16px ; background-color: rgb(255 , 255 , 255)&quot;&gt;&lt;li style=&quot;box-sizing: border-box&quot;&gt;As a rider, I want to rent a bike, by scanning bar code on scooter&lt;/li&gt;&lt;li style=&quot;box-sizing: border-box ; margin-top: 0.25em&quot;&gt;As a rider, I want to monitor time left, by navigating to home screen of app&lt;/li&gt;&lt;li style=&quot;box-sizing: border-box ; margin-top: 0.25em&quot;&gt;As a rider, I want to locate the nearest charging station, by tapping a button on the homepage&lt;/li&gt;&lt;li style=&quot;box-sizing: border-box ; margin-top: 0.25em&quot;&gt;As a rider, I want to sign up, by entering required information&lt;/li&gt;&lt;li style=&quot;box-sizing: border-box ; margin-top: 0.25em&quot;&gt;As a rider, I want to sign in, by logging in with my username and password&lt;/li&gt;&lt;/ul&gt;" style="text;html=1;align=left;verticalAlign=middle;resizable=0;points=[];autosize=1;strokeColor=none;" vertex="1" parent="1">
          <mxGeometry x="70" y="90" width="710" height="110" as="geometry" />
        </mxCell>
        <mxCell id="jphkN0uenkxvXPKbCDXh-39" value="&lt;font style=&quot;font-size: 24px&quot;&gt;User Story&lt;/font&gt;" style="text;html=1;align=center;verticalAlign=middle;resizable=0;points=[];autosize=1;strokeColor=none;" vertex="1" parent="1">
          <mxGeometry x="360" y="50" width="130" height="20" as="geometry" />
        </mxCell>
      </root>
    </mxGraphModel>
  </diagram>
</mxfile>
